<?xml version="1.0" encoding="utf-8"?>
<svg width="577px" height="341px" viewBox="0 0 577 341" version="1.1" xmlns:xlink="http://www.w3.org/1999/xlink" xmlns="http://www.w3.org/2000/svg">
  <defs>
    <path d="M0 0L509 0L509 170L0 170L0 0Z" id="path_1" />
    <clipPath id="clip_1">
      <use xlink:href="#path_1" clip-rule="evenodd" fill-rule="evenodd" />
    </clipPath>
  </defs>
  <g id="CorpusCompass-Main-Image">
    <path d="M577 0L577 0L577 341L0 341L0 0L577 0Z" id="CorpusCompass-Main-Image" fill="none" stroke="none" />
    <g id="Corpus" clip-path="url(#clip_1)" transform="translate(4 109)">
      <g transform="translate(0, 23.181818)" id="Corpus" fill="#279868">
        <path d="M64.6364 45L56.1818 45Q55.1591 40.1591 52.2614 36.8523Q49.3636 33.5455 45.2727 31.8409Q41.1818 30.1364 36.5455 30.1364Q30.2045 30.1364 25.0739 33.3409Q19.9432 36.5455 16.9261 42.7841Q13.9091 49.0227 13.9091 58.0909Q13.9091 67.1591 16.9261 73.3977Q19.9432 79.6364 25.0739 82.8409Q30.2045 86.0455 36.5455 86.0455Q41.1818 86.0455 45.2727 84.3409Q49.3636 82.6364 52.2614 79.3295Q55.1591 76.0227 56.1818 71.1818L64.6364 71.1818Q63.3409 78.3409 59.3523 83.4375Q55.3636 88.5341 49.4659 91.2443Q43.5682 93.9545 36.5455 93.9545Q27.6136 93.9545 20.6591 89.5909Q13.7045 85.2273 9.71591 77.1818Q5.72727 69.1364 5.72727 58.0909Q5.72727 47.0455 9.71591 39Q13.7045 30.9546 20.6591 26.5909Q27.6136 22.2273 36.5455 22.2273Q43.5682 22.2273 49.4659 24.9375Q55.3636 27.6477 59.3523 32.7443Q63.3409 37.8409 64.6364 45ZM98.4545 94.0909Q91.3636 94.0909 86.0284 90.7159Q80.6932 87.3409 77.7102 81.2727Q74.7273 75.2045 74.7273 67.0909Q74.7273 58.9091 77.7102 52.8068Q80.6932 46.7045 86.0284 43.3295Q91.3636 39.9545 98.4545 39.9545Q105.545 39.9545 110.881 43.3295Q116.216 46.7045 119.199 52.8068Q122.182 58.9091 122.182 67.0909Q122.182 75.2045 119.199 81.2727Q116.216 87.3409 110.881 90.7159Q105.545 94.0909 98.4545 94.0909ZM98.4545 86.8636Q103.841 86.8636 107.318 84.1023Q110.795 81.3409 112.466 76.8409Q114.136 72.3409 114.136 67.0909Q114.136 61.8409 112.466 57.3068Q110.795 52.7727 107.318 49.9773Q103.841 47.1818 98.4545 47.1818Q93.0682 47.1818 89.5909 49.9773Q86.1136 52.7727 84.4432 57.3068Q82.7727 61.8409 82.7727 67.0909Q82.7727 72.3409 84.4432 76.8409Q86.1136 81.3409 89.5909 84.1023Q93.0682 86.8636 98.4545 86.8636ZM134.455 93L134.455 40.6364L142.227 40.6364L142.227 48.5455L142.773 48.5455Q144.205 44.6591 147.955 42.2386Q151.705 39.8182 156.409 39.8182Q157.295 39.8182 158.625 39.8523Q159.955 39.8864 160.636 39.9545L160.636 48.1364Q160.227 48.0341 158.778 47.8125Q157.33 47.5909 155.727 47.5909Q150 47.5909 146.25 51.0682Q142.5 54.5455 142.5 59.8636L142.5 93L134.455 93ZM170.182 112.636L170.182 40.6364L177.955 40.6364L177.955 48.9545L178.909 48.9545Q179.795 47.5909 181.381 45.4602Q182.966 43.3295 185.949 41.642Q188.932 39.9545 194.045 39.9545Q200.659 39.9545 205.705 43.2614Q210.75 46.5682 213.58 52.6364Q216.409 58.7045 216.409 66.9545Q216.409 75.2727 213.58 81.358Q210.75 87.4432 205.739 90.767Q200.727 94.0909 194.182 94.0909Q189.136 94.0909 186.102 92.4034Q183.068 90.7159 181.432 88.5511Q179.795 86.3864 178.909 84.9545L178.227 84.9545L178.227 112.636L170.182 112.636ZM178.091 66.8182Q178.091 75.7159 181.96 81.2898Q185.83 86.8636 193.091 86.8636Q198.136 86.8636 201.528 84.1875Q204.92 81.5114 206.642 76.9602Q208.364 72.4091 208.364 66.8182Q208.364 61.2955 206.676 56.8466Q204.989 52.3977 201.597 49.7898Q198.205 47.1818 193.091 47.1818Q185.727 47.1818 181.909 52.6023Q178.091 58.0227 178.091 66.8182ZM261.682 71.5909L261.682 40.6364L269.727 40.6364L269.727 93L261.682 93L261.682 84.1364L261.136 84.1364Q259.295 88.125 255.409 90.9034Q251.523 93.6818 245.591 93.6818Q238.227 93.6818 233.455 88.8068Q228.682 83.9318 228.682 73.9091L228.682 40.6364L236.727 40.6364L236.727 73.3636Q236.727 79.0909 239.949 82.5Q243.17 85.9091 248.182 85.9091Q251.182 85.9091 254.301 84.375Q257.42 82.8409 259.551 79.6705Q261.682 76.5 261.682 71.5909ZM321.545 52.3636L314.318 54.4091Q313.261 51.6818 310.773 49.2955Q308.284 46.9091 303 46.9091Q298.193 46.9091 295.006 49.108Q291.818 51.3068 291.818 54.6818Q291.818 57.6818 294 59.4205Q296.182 61.1591 300.818 62.3182L308.591 64.2273Q322.5 67.6364 322.5 78.4091Q322.5 82.9091 319.926 86.4545Q317.352 90 312.75 92.0455Q308.148 94.0909 302.045 94.0909Q294.034 94.0909 288.784 90.6136Q283.534 87.1364 282.136 80.4545L289.773 78.5455Q291.92 87 301.909 87Q307.534 87 310.858 84.5966Q314.182 82.1932 314.182 78.8182Q314.182 73.2614 306.409 71.4545L297.682 69.4091Q290.489 67.7045 287.131 64.108Q283.773 60.5114 283.773 55.0909Q283.773 50.6591 286.278 47.25Q288.784 43.8409 293.131 41.8977Q297.477 39.9546 303 39.9545Q310.773 39.9545 315.222 43.3636Q319.67 46.7727 321.545 52.3636Z" />
      </g>
    </g>
    <g id="Compass" transform="translate(140 221)">
      <g transform="translate(0, 23.181818)" id="Compass" fill="#808080">
        <path d="M64.6364 45L56.1818 45Q55.1591 40.1591 52.2614 36.8523Q49.3636 33.5455 45.2727 31.8409Q41.1818 30.1364 36.5455 30.1364Q30.2045 30.1364 25.0739 33.3409Q19.9432 36.5455 16.9261 42.7841Q13.9091 49.0227 13.9091 58.0909Q13.9091 67.1591 16.9261 73.3977Q19.9432 79.6364 25.0739 82.8409Q30.2045 86.0455 36.5455 86.0455Q41.1818 86.0455 45.2727 84.3409Q49.3636 82.6364 52.2614 79.3295Q55.1591 76.0227 56.1818 71.1818L64.6364 71.1818Q63.3409 78.3409 59.3523 83.4375Q55.3636 88.5341 49.4659 91.2443Q43.5682 93.9545 36.5455 93.9545Q27.6136 93.9545 20.6591 89.5909Q13.7045 85.2273 9.71591 77.1818Q5.72727 69.1364 5.72727 58.0909Q5.72727 47.0455 9.71591 39Q13.7045 30.9546 20.6591 26.5909Q27.6136 22.2273 36.5455 22.2273Q43.5682 22.2273 49.4659 24.9375Q55.3636 27.6477 59.3523 32.7443Q63.3409 37.8409 64.6364 45ZM98.4545 94.0909Q91.3636 94.0909 86.0284 90.7159Q80.6932 87.3409 77.7102 81.2727Q74.7273 75.2045 74.7273 67.0909Q74.7273 58.9091 77.7102 52.8068Q80.6932 46.7045 86.0284 43.3295Q91.3636 39.9545 98.4545 39.9545Q105.545 39.9545 110.881 43.3295Q116.216 46.7045 119.199 52.8068Q122.182 58.9091 122.182 67.0909Q122.182 75.2045 119.199 81.2727Q116.216 87.3409 110.881 90.7159Q105.545 94.0909 98.4545 94.0909ZM98.4545 86.8636Q103.841 86.8636 107.318 84.1023Q110.795 81.3409 112.466 76.8409Q114.136 72.3409 114.136 67.0909Q114.136 61.8409 112.466 57.3068Q110.795 52.7727 107.318 49.9773Q103.841 47.1818 98.4545 47.1818Q93.0682 47.1818 89.5909 49.9773Q86.1136 52.7727 84.4432 57.3068Q82.7727 61.8409 82.7727 67.0909Q82.7727 72.3409 84.4432 76.8409Q86.1136 81.3409 89.5909 84.1023Q93.0682 86.8636 98.4545 86.8636ZM134.455 93L134.455 40.6364L142.227 40.6364L142.227 48.8182L142.909 48.8182Q144.545 44.625 148.193 42.2898Q151.841 39.9546 156.955 39.9545Q162.136 39.9545 165.597 42.2898Q169.057 44.625 171 48.8182L171.545 48.8182Q173.557 44.7614 177.58 42.358Q181.602 39.9546 187.227 39.9545Q194.25 39.9545 198.716 44.3352Q203.182 48.7159 203.182 57.9545L203.182 93L195.136 93L195.136 57.9545Q195.136 52.1591 191.966 49.6705Q188.795 47.1818 184.5 47.1818Q178.977 47.1818 175.943 50.5057Q172.909 53.8295 172.909 58.9091L172.909 93L164.727 93L164.727 57.1364Q164.727 52.6705 161.83 49.9261Q158.932 47.1818 154.364 47.1818Q151.227 47.1818 148.517 48.8523Q145.807 50.5227 144.153 53.4716Q142.5 56.4205 142.5 60.2727L142.5 93L134.455 93ZM217.909 112.636L217.909 40.6364L225.682 40.6364L225.682 48.9545L226.636 48.9545Q227.523 47.5909 229.108 45.4602Q230.693 43.3295 233.676 41.642Q236.659 39.9545 241.773 39.9545Q248.386 39.9545 253.432 43.2614Q258.477 46.5682 261.307 52.6364Q264.136 58.7045 264.136 66.9545Q264.136 75.2727 261.307 81.358Q258.477 87.4432 253.466 90.767Q248.455 94.0909 241.909 94.0909Q236.864 94.0909 233.83 92.4034Q230.795 90.7159 229.159 88.5511Q227.523 86.3864 226.636 84.9545L225.955 84.9545L225.955 112.636L217.909 112.636ZM225.818 66.8182Q225.818 75.7159 229.688 81.2898Q233.557 86.8636 240.818 86.8636Q245.864 86.8636 249.256 84.1875Q252.648 81.5114 254.369 76.9602Q256.091 72.4091 256.091 66.8182Q256.091 61.2955 254.403 56.8466Q252.716 52.3977 249.324 49.7898Q245.932 47.1818 240.818 47.1818Q233.455 47.1818 229.636 52.6023Q225.818 58.0227 225.818 66.8182ZM291.818 94.2273Q286.841 94.2273 282.784 92.3352Q278.727 90.4432 276.341 86.8466Q273.955 83.25 273.955 78.1364Q273.955 73.6364 275.727 70.8239Q277.5 68.0114 280.466 66.4091Q283.432 64.8068 287.028 64.0057Q290.625 63.2046 294.273 62.7273Q299.045 62.1136 302.028 61.7898Q305.011 61.4659 306.392 60.6818Q307.773 59.8977 307.773 57.9545L307.773 57.6818Q307.773 52.6364 305.028 49.8409Q302.284 47.0455 296.727 47.0455Q290.966 47.0455 287.693 49.5682Q284.42 52.0909 283.091 54.9545L275.455 52.2273Q277.5 47.4545 280.926 44.7784Q284.352 42.1023 288.426 41.0284Q292.5 39.9545 296.455 39.9545Q298.977 39.9545 302.267 40.5511Q305.557 41.1477 308.642 42.9886Q311.727 44.8295 313.773 48.5455Q315.818 52.2614 315.818 58.5L315.818 93L307.773 93L307.773 85.9091L307.364 85.9091Q306.545 87.6136 304.636 89.5568Q302.727 91.5 299.557 92.8636Q296.386 94.2273 291.818 94.2273ZM293.045 87Q297.818 87 301.108 85.125Q304.398 83.25 306.085 80.2841Q307.773 77.3182 307.773 74.0455L307.773 66.6818Q307.261 67.2955 305.54 67.7898Q303.818 68.2841 301.585 68.642Q299.352 69 297.256 69.2557Q295.159 69.5114 293.864 69.6818Q290.727 70.0909 288.017 70.9943Q285.307 71.8977 283.653 73.6875Q282 75.4773 282 78.5455Q282 82.7386 285.119 84.8693Q288.239 87 293.045 87ZM367.636 52.3636L360.409 54.4091Q359.352 51.6818 356.864 49.2955Q354.375 46.9091 349.091 46.9091Q344.284 46.9091 341.097 49.108Q337.909 51.3068 337.909 54.6818Q337.909 57.6818 340.091 59.4205Q342.273 61.1591 346.909 62.3182L354.682 64.2273Q368.591 67.6364 368.591 78.4091Q368.591 82.9091 366.017 86.4545Q363.443 90 358.841 92.0455Q354.239 94.0909 348.136 94.0909Q340.125 94.0909 334.875 90.6136Q329.625 87.1364 328.227 80.4545L335.864 78.5455Q338.011 87 348 87Q353.625 87 356.949 84.5966Q360.273 82.1932 360.273 78.8182Q360.273 73.2614 352.5 71.4545L343.773 69.4091Q336.58 67.7045 333.222 64.108Q329.864 60.5114 329.864 55.0909Q329.864 50.6591 332.369 47.25Q334.875 43.8409 339.222 41.8977Q343.568 39.9546 349.091 39.9545Q356.864 39.9545 361.313 43.3636Q365.761 46.7727 367.636 52.3636ZM417.818 52.3636L410.591 54.4091Q409.534 51.6818 407.045 49.2955Q404.557 46.9091 399.273 46.9091Q394.466 46.9091 391.278 49.108Q388.091 51.3068 388.091 54.6818Q388.091 57.6818 390.273 59.4205Q392.455 61.1591 397.091 62.3182L404.864 64.2273Q418.773 67.6364 418.773 78.4091Q418.773 82.9091 416.199 86.4545Q413.625 90 409.023 92.0455Q404.42 94.0909 398.318 94.0909Q390.307 94.0909 385.057 90.6136Q379.807 87.1364 378.409 80.4545L386.045 78.5455Q388.193 87 398.182 87Q403.807 87 407.131 84.5966Q410.455 82.1932 410.455 78.8182Q410.455 73.2614 402.682 71.4545L393.955 69.4091Q386.761 67.7045 383.403 64.108Q380.045 60.5114 380.045 55.0909Q380.045 50.6591 382.551 47.25Q385.057 43.8409 389.403 41.8977Q393.75 39.9546 399.273 39.9545Q407.045 39.9545 411.494 43.3636Q415.943 46.7727 417.818 52.3636Z" />
      </g>
    </g>
    <path d="M541.919 111C541.919 111 551 111 551 111C551 166.228 506.228 211 451 211C395.772 211 351 166.228 351 111C351 55.7715 395.772 11 451 11C506.228 11 551 55.7715 551 111C551 111 541.919 111 541.919 111C541.919 60.7866 501.213 20.0806 451 20.0806C400.787 20.0806 360.081 60.7866 360.081 111C360.081 161.213 400.787 201.919 451 201.919C501.213 201.919 541.919 161.213 541.919 111Z" id="Oval" fill="#808080" fill-rule="evenodd" stroke="none" />
    <g id="Group" transform="translate(386 49)">
      <path d="M71.4863 70.1657L128 0L55.7589 56.9688L71.4863 70.1657Z" id="Vector-2" fill="#FF0000" fill-rule="evenodd" stroke="#FF0000" stroke-width="1" />
      <path d="M55.4166 57.5359L0 127L70.8384 70.6009L55.4166 57.5359Z" id="Vector-3" fill="#808080" fill-rule="evenodd" stroke="#808080" stroke-width="1" />
    </g>
  </g>
</svg>