<?xml version="1.0" encoding="utf-8"?>
<svg width="24px" height="29px" viewBox="0 0 24 29" version="1.1" xmlns:xlink="http://www.w3.org/1999/xlink" xmlns="http://www.w3.org/2000/svg">
  <g id="24px---CorpusCompass-Icon">
    <path d="M24 0L24 0L24 24L0 24L0 0L24 0Z" id="24px---CorpusCompass-Icon" fill="none" stroke="none" transform="translate(0 2)" />
    <path d="M13.6771 12.2L21.5 2.3468L11.5 10.3468L13.6771 12.2Z" id="Vector-2" fill="#FF0000" fill-rule="evenodd" stroke="#FF0000" stroke-width="1" transform="translate(0 2)" />
    <path d="M10.8229 11L3 20.8532L13 12.8532L10.8229 11Z" id="Vector-3" fill="#808080" fill-rule="evenodd" stroke="#808080" stroke-width="1" transform="translate(0 2)" />
    <g id="Text" transform="translate(0 2), translate(2 -2)">
      <g transform="translate(0, 2.8977273)" id="C">
        <path d="M8.07955 5.625L7.02273 5.625Q6.89489 5.01989 6.53267 4.60653Q6.17045 4.19318 5.65909 3.98011Q5.14773 3.76705 4.56818 3.76705Q3.77557 3.76705 3.13423 4.16761Q2.4929 4.56818 2.11577 5.34801Q1.73864 6.12784 1.73864 7.26136Q1.73864 8.39489 2.11577 9.17472Q2.4929 9.95455 3.13423 10.3551Q3.77557 10.7557 4.56818 10.7557Q5.14773 10.7557 5.65909 10.5426Q6.17045 10.3295 6.53267 9.91619Q6.89489 9.50284 7.02273 8.89773L8.07955 8.89773Q7.91761 9.79261 7.41903 10.4297Q6.92045 11.0668 6.18324 11.4055Q5.44602 11.7443 4.56818 11.7443Q3.4517 11.7443 2.58239 11.1989Q1.71307 10.6534 1.21449 9.64773Q0.715909 8.64205 0.715909 7.26136Q0.715909 5.88068 1.21449 4.875Q1.71307 3.86932 2.58239 3.32386Q3.4517 2.77841 4.56818 2.77841Q5.44602 2.77841 6.18324 3.11719Q6.92045 3.45597 7.41903 4.09304Q7.91761 4.73011 8.07955 5.625Z" />
      </g>
    </g>
    <g id="C-2" transform="translate(0 2), translate(13 11)">
      <g transform="translate(0, 2.8977273)" id="C" fill="#279868">
        <path d="M8.07955 5.625L7.02273 5.625Q6.89489 5.01989 6.53267 4.60653Q6.17045 4.19318 5.65909 3.98011Q5.14773 3.76705 4.56818 3.76705Q3.77557 3.76705 3.13423 4.16761Q2.4929 4.56818 2.11577 5.34801Q1.73864 6.12784 1.73864 7.26136Q1.73864 8.39489 2.11577 9.17472Q2.4929 9.95455 3.13423 10.3551Q3.77557 10.7557 4.56818 10.7557Q5.14773 10.7557 5.65909 10.5426Q6.17045 10.3295 6.53267 9.91619Q6.89489 9.50284 7.02273 8.89773L8.07955 8.89773Q7.91761 9.79261 7.41903 10.4297Q6.92045 11.0668 6.18324 11.4055Q5.44602 11.7443 4.56818 11.7443Q3.4517 11.7443 2.58239 11.1989Q1.71307 10.6534 1.21449 9.64773Q0.715909 8.64205 0.715909 7.26136Q0.715909 5.88068 1.21449 4.875Q1.71307 3.86932 2.58239 3.32386Q3.4517 2.77841 4.56818 2.77841Q5.44602 2.77841 6.18324 3.11719Q6.92045 3.45597 7.41903 4.09304Q7.91761 4.73011 8.07955 5.625Z" />
      </g>
    </g>
  </g>
</svg>