<?xml version="1.0" encoding="utf-8"?>
<svg width="51.000076px" height="51px" viewBox="0 0 51.000076 51" version="1.1" xmlns:xlink="http://www.w3.org/1999/xlink" xmlns="http://www.w3.org/2000/svg">
  <defs>
    <path d="M51.0001 0L51.0001 0L51.0001 51L0 51L0 0L51.0001 0Z" id="path_1" />
    <clipPath id="clip_1">
      <use xlink:href="#path_1" clip-rule="evenodd" fill-rule="evenodd" />
    </clipPath>
  </defs>
  <g id="Plus Icon">
    <path d="M51.0001 0L51.0001 0L51.0001 51L0 51L0 0L51.0001 0Z" id="Plus-Icon" fill="none" stroke="none" />
    <path d="M25 0C27.2094 0 29 1.79056 29 4L29 47C29 49.2094 27.2094 51 25 51L25 51C22.7905 51 21 49.2094 21 47L21 4C21 1.79056 22.7905 0 25 0Z" id="Rectangle" fill="#FFFFFF" stroke="none" clip-path="url(#clip_1)" />
    <path d="M21.5 46.5L21.5 3.49996Q21.5 3.30345 21.5193 3.10789Q21.5386 2.91233 21.5769 2.7196Q21.6152 2.52687 21.6723 2.33882Q21.7293 2.15078 21.8045 1.96923Q21.8797 1.78768 21.9724 1.61437Q22.065 1.44107 22.1742 1.27768Q22.2833 1.11429 22.408 0.962385Q22.5327 0.810483 22.6716 0.671531Q22.8106 0.532579 22.9625 0.407916Q23.1144 0.283253 23.2778 0.174079Q23.4411 0.064905 23.6145 -0.0277281Q23.7878 -0.120361 23.9693 -0.195561Q24.1509 -0.270762 24.3389 -0.327805Q24.5269 -0.384848 24.7197 -0.423185Q24.9124 -0.461522 25.108 -0.480783Q25.3035 -0.500044 25.5 -0.500044L25.5 -0.500044Q25.6966 -0.500044 25.8921 -0.480783Q26.0877 -0.461522 26.2804 -0.423185Q26.4731 -0.384848 26.6612 -0.327805Q26.8492 -0.270762 27.0308 -0.195561Q27.2123 -0.120361 27.3856 -0.027728Q27.5589 0.0649051 27.7223 0.174079Q27.8857 0.283253 28.0376 0.407916Q28.1895 0.532579 28.3285 0.671531Q28.4674 0.810483 28.5921 0.962385Q28.7168 1.11429 28.8259 1.27768Q28.9351 1.44107 29.0277 1.61437Q29.1204 1.78768 29.1956 1.96923Q29.2708 2.15078 29.3278 2.33882Q29.3849 2.52687 29.4232 2.7196Q29.4615 2.91233 29.4808 3.10789Q29.5001 3.30346 29.5 3.49996L29.5 46.5Q29.5001 46.6965 29.4808 46.8921Q29.4615 47.0877 29.4232 47.2804Q29.3849 47.4731 29.3278 47.6612Q29.2708 47.8492 29.1956 48.0308Q29.1204 48.2123 29.0277 48.3856Q28.9351 48.5589 28.8259 48.7223Q28.7168 48.8857 28.5921 49.0376Q28.4674 49.1895 28.3285 49.3285Q28.1895 49.4674 28.0376 49.5921Q27.8857 49.7167 27.7223 49.8259Q27.5589 49.9351 27.3856 50.0277Q27.2123 50.1203 27.0308 50.1955Q26.8492 50.2707 26.6612 50.3278Q26.4731 50.3848 26.2804 50.4232Q26.0877 50.4615 25.8921 50.4808Q25.6965 50.5 25.5 50.5L25.5 50.5Q25.3035 50.5 25.108 50.4808Q24.9124 50.4615 24.7197 50.4232Q24.5269 50.3848 24.3389 50.3278Q24.1509 50.2708 23.9693 50.1955Q23.7878 50.1204 23.6145 50.0277Q23.4411 49.9351 23.2778 49.8259Q23.1144 49.7167 22.9625 49.5921Q22.8106 49.4674 22.6716 49.3285Q22.5327 49.1895 22.408 49.0376Q22.2833 48.8857 22.1742 48.7223Q22.065 48.5589 21.9724 48.3856Q21.8797 48.2123 21.8045 48.0308Q21.7293 47.8492 21.6723 47.6612Q21.6152 47.4731 21.5769 47.2804Q21.5386 47.0877 21.5193 46.8921Q21.5 46.6965 21.5 46.5Z" transform="rotate(-90 25.5 25)" id="Rectangle-2" fill="#FFFFFF" stroke="none" clip-path="url(#clip_1)" />
  </g>
</svg>