<?xml version="1.0" encoding="utf-8"?>
<svg width="24px" height="24px" viewBox="0 0 24 24" version="1.1" xmlns:xlink="http://www.w3.org/1999/xlink" xmlns="http://www.w3.org/2000/svg">
  <defs>
    <path d="M2 12C2 6.47715 6.47715 2 12 2C17.5228 2 22 6.47715 22 12C22 17.5228 17.5228 22 12 22C6.47715 22 2 17.5228 2 12Z" id="path_1" />
    <clipPath id="clip_1">
      <use xlink:href="#path_1" />
    </clipPath>
  </defs>
  <g id="24px---Grid-Icon">
    <path d="M24 0L24 0L24 24L0 24L0 0L24 0Z" id="24px---Grid-Icon" fill="none" stroke="none" />
    <path d="M10.0013 10C10.0013 10 9 10 9 10C9 9.60603 9.0776 9.21593 9.22836 8.85195C9.37913 8.48797 9.6001 8.15726 9.87868 7.87868C10.1573 7.6001 10.488 7.37913 10.8519 7.22836C11.2159 7.0776 11.606 7 12 7C12.394 7 12.7841 7.0776 13.1481 7.22836C13.512 7.37913 13.8427 7.6001 14.1213 7.87868C14.3999 8.15726 14.6209 8.48797 14.7716 8.85195C14.9224 9.21593 15 9.60603 15 10C15 10 13.9987 10 13.9987 10C13.9987 9.73753 13.947 9.47764 13.8465 9.23515C13.7461 8.99266 13.5989 8.77233 13.4133 8.58674C13.2277 8.40115 13.0073 8.25393 12.7649 8.15349C12.5224 8.05304 12.2625 8.00135 12 8.00135C11.7375 8.00135 11.4776 8.05304 11.2351 8.15349C10.9927 8.25393 10.7723 8.40115 10.5867 8.58674C10.4011 8.77233 10.2539 8.99266 10.1535 9.23515C10.053 9.47764 10.0013 9.73753 10.0013 10Z" id="Oval-3" fill="#000000" fill-rule="evenodd" stroke="none" />
    <g id="Oval">
      <g clip-path="url(#clip_1)">
        <use xlink:href="#path_1" fill="none" stroke="#000000" stroke-width="2" />
      </g>
    </g>
    <path d="M11 17C11 16.4477 11.4477 16 12 16C12.5523 16 13 16.4477 13 17C13 17.5523 12.5523 18 12 18C11.4477 18 11 17.5523 11 17Z" id="Oval-2" fill="#000000" fill-rule="evenodd" stroke="none" />
    <path d="M14.5085 10C14.5085 12.4204 12.05 12.6169 12.05 15.0507" id="Vector" fill="none" fill-rule="evenodd" stroke="#000000" stroke-width="1" />
  </g>
</svg>