<?xml version="1.0" encoding="utf-8"?>
<svg width="57px" height="51px" viewBox="0 0 57 51" version="1.1" xmlns:xlink="http://www.w3.org/1999/xlink" xmlns="http://www.w3.org/2000/svg">
  <defs>
    <path d="M57 0L57 0L57 51L0 51L0 0L57 0Z" id="path_1" />
    <clipPath id="clip_1">
      <use xlink:href="#path_1" clip-rule="evenodd" fill-rule="evenodd" />
    </clipPath>
  </defs>
  <g id="Home Icon">
    <path d="M57 0L57 0L57 51L0 51L0 0L57 0Z" id="Home-Icon" fill="none" stroke="none" />
    <path d="M28.5 0L57 26.2083L0 26.2083L28.5 0Z" id="Triangle" fill="#00BE3C" fill-rule="evenodd" stroke="none" clip-path="url(#clip_1)" />
    <path d="M15.8375 19.125L41.875 19.125Q42.0714 19.125 42.2676 19.1346Q42.4637 19.1443 42.6592 19.1635Q42.8546 19.1828 43.0489 19.2116Q43.2431 19.2404 43.4357 19.2787Q43.6283 19.317 43.8189 19.3647Q44.0094 19.4125 44.1973 19.4695Q44.3852 19.5265 44.5701 19.5926Q44.755 19.6588 44.9365 19.734Q45.1179 19.8091 45.2954 19.8931Q45.473 19.9771 45.6462 20.0696Q45.8194 20.1622 45.9878 20.2632Q46.1563 20.3641 46.3196 20.4732Q46.4829 20.5823 46.6406 20.6993Q46.7983 20.8163 46.9502 20.9409Q47.102 21.0655 47.2475 21.1974Q47.393 21.3293 47.5319 21.4681Q47.6707 21.607 47.8026 21.7525Q47.9345 21.898 48.0591 22.0499Q48.1837 22.2017 48.3007 22.3594Q48.4177 22.5171 48.5268 22.6804Q48.6359 22.8437 48.7368 23.0122Q48.8378 23.1806 48.9304 23.3538Q49.0229 23.527 49.1069 23.7046Q49.1909 23.8821 49.266 24.0635Q49.3412 24.245 49.4074 24.4299Q49.4735 24.6148 49.5305 24.8027Q49.5875 24.9907 49.6353 25.1812Q49.683 25.3717 49.7213 25.5643Q49.7596 25.7569 49.7884 25.9512Q49.8172 26.1454 49.8365 26.3409Q49.8557 26.5363 49.8654 26.7325Q49.875 26.9286 49.875 27.125L49.875 43Q49.875 43.1964 49.8654 43.3925Q49.8557 43.5887 49.8365 43.7841Q49.8172 43.9796 49.7884 44.1738Q49.7596 44.3681 49.7213 44.5607Q49.683 44.7533 49.6353 44.9438Q49.5875 45.1343 49.5305 45.3223Q49.4735 45.5102 49.4074 45.6951Q49.3412 45.88 49.266 46.0615Q49.1909 46.2429 49.1069 46.4204Q49.023 46.598 48.9304 46.7712Q48.8378 46.9444 48.7368 47.1128Q48.6359 47.2813 48.5268 47.4446Q48.4177 47.6078 48.3007 47.7656Q48.1837 47.9233 48.0591 48.0751Q47.9345 48.227 47.8026 48.3725Q47.6707 48.518 47.5319 48.6569Q47.393 48.7957 47.2475 48.9276Q47.102 49.0595 46.9502 49.1841Q46.7983 49.3087 46.6406 49.4257Q46.4829 49.5426 46.3196 49.6517Q46.1563 49.7609 45.9878 49.8618Q45.8194 49.9628 45.6462 50.0554Q45.473 50.1479 45.2954 50.2319Q45.1179 50.3159 44.9365 50.391Q44.755 50.4662 44.5701 50.5323Q44.3852 50.5985 44.1973 50.6555Q44.0094 50.7125 43.8189 50.7603Q43.6283 50.808 43.4357 50.8463Q43.2431 50.8846 43.0489 50.9134Q42.8546 50.9422 42.6592 50.9615Q42.4637 50.9807 42.2676 50.9904Q42.0714 51 41.875 51L33.5996 51C33.5996 51 33.5996 40.375 33.5996 40.375C33.5996 40.375 33.6383 43.7959 33.5996 40.375C33.5608 36.9541 24.9929 37.5682 24.887 40.375L24.887 51L15.8375 51Q15.6411 51 15.445 50.9904Q15.2488 50.9807 15.0534 50.9615Q14.8579 50.9422 14.6637 50.9134Q14.4694 50.8846 14.2768 50.8463Q14.0842 50.808 13.8937 50.7603Q13.7032 50.7125 13.5152 50.6555Q13.3273 50.5985 13.1424 50.5324Q12.9575 50.4662 12.776 50.391Q12.5946 50.3159 12.4171 50.2319Q12.2395 50.1479 12.0663 50.0554Q11.8931 49.9628 11.7247 49.8618Q11.5562 49.7609 11.3929 49.6517Q11.2297 49.5426 11.0719 49.4257Q10.9142 49.3087 10.7624 49.1841Q10.6105 49.0595 10.465 48.9276Q10.3195 48.7957 10.1807 48.6569Q10.0418 48.518 9.9099 48.3725Q9.77801 48.227 9.65342 48.0751Q9.52883 47.9233 9.41185 47.7656Q9.29486 47.6078 9.18575 47.4446Q9.07664 47.2813 8.97568 47.1128Q8.87471 46.9444 8.78214 46.7712Q8.68956 46.598 8.60559 46.4204Q8.52162 46.2429 8.44647 46.0615Q8.37131 45.88 8.30515 45.6951Q8.23899 45.5102 8.18198 45.3223Q8.12497 45.1343 8.07726 44.9438Q8.02954 44.7533 7.99122 44.5607Q7.95291 44.3681 7.92409 44.1738Q7.89528 43.9796 7.87603 43.7841Q7.85678 43.5887 7.84714 43.3925Q7.8375 43.1964 7.83751 43L7.83751 27.125Q7.8375 26.9286 7.84714 26.7325Q7.85678 26.5363 7.87603 26.3409Q7.89528 26.1454 7.92409 25.9512Q7.95291 25.7569 7.99122 25.5643Q8.02954 25.3717 8.07726 25.1812Q8.12497 24.9907 8.18198 24.8027Q8.23899 24.6148 8.30515 24.4299Q8.37131 24.245 8.44647 24.0635Q8.52162 23.8821 8.60559 23.7046Q8.68956 23.527 8.78214 23.3538Q8.87471 23.1806 8.97568 23.0122Q9.07664 22.8437 9.18575 22.6804Q9.29486 22.5171 9.41184 22.3594Q9.52883 22.2017 9.65342 22.0499Q9.77801 21.898 9.90989 21.7525Q10.0418 21.607 10.1807 21.4681Q10.3195 21.3293 10.465 21.1974Q10.6105 21.0655 10.7624 20.9409Q10.9142 20.8163 11.0719 20.6993Q11.2297 20.5823 11.3929 20.4732Q11.5562 20.3641 11.7247 20.2632Q11.8931 20.1622 12.0663 20.0696Q12.2395 19.9771 12.4171 19.8931Q12.5946 19.8091 12.776 19.734Q12.9575 19.6588 13.1424 19.5926Q13.3273 19.5265 13.5152 19.4695Q13.7032 19.4125 13.8937 19.3647Q14.0842 19.317 14.2768 19.2787Q14.4694 19.2404 14.6637 19.2116Q14.8579 19.1828 15.0534 19.1635Q15.2488 19.1443 15.445 19.1346Q15.6411 19.125 15.8375 19.125L15.8375 19.125Z" id="Rectangle-2" fill="#00BE3C" fill-rule="evenodd" stroke="none" clip-path="url(#clip_1)" />
    <path d="M39.9 4.25C41.4742 4.25 42.75 5.52578 42.75 7.1L42.75 14.8583C42.75 16.4326 41.4742 17.7083 39.9 17.7083L39.9 17.7083C38.3258 17.7083 37.05 16.4326 37.05 14.8583L37.05 7.1C37.05 5.52578 38.3258 4.25 39.9 4.25Z" id="Rectangle-4" fill="#00BE3C" stroke="none" clip-path="url(#clip_1)" />
  </g>
</svg>